<?xml version="1.0" standalone="no"?><!DOCTYPE svg PUBLIC "-//W3C//DTD SVG 1.1//EN" "http://www.w3.org/Graphics/SVG/1.1/DTD/svg11.dtd"><svg t="1663122285601" class="icon" viewBox="0 0 1024 1024" version="1.1" xmlns="http://www.w3.org/2000/svg" p-id="1884" xmlns:xlink="http://www.w3.org/1999/xlink" width="64" height="64"><path d="M535.6544 577.5872a51.7632 51.7632 0 0 0 0 76.7488l169.984 160c8.9088 7.5264 16.3328 11.3152 22.784 11.3152 9.984 0 17.6128-9.984 17.6128-27.6992v-112.0768h250.6752V544.768h-251.904V432.64c0-18.944-7.5264-28.9792-17.664-28.9792-6.2976 0-13.8752 5.0176-22.6816 12.5952l-168.8064 161.3312z m0 0" fill="#ffffff" p-id="1885"></path><path d="M407.7568 332.9536m-222.976 0a222.976 222.976 0 1 0 445.952 0 222.976 222.976 0 1 0-445.952 0Z" fill="#ffffff" p-id="1886"></path><path d="M584.8064 834.3552H463.2576V616.448a372.992 372.992 0 0 0-65.536-5.0688c-205.3632 0-370.3808 137.3696-370.3808 306.1248h686.592v-83.1488h-129.1264z" fill="#ffffff" p-id="1887"></path></svg>