<svg xmlns="http://www.w3.org/2000/svg" id="canvas" viewBox="305.199 346.230 1475.181 193.770"><path d="M 324.47,358.72 C 323.42 359.81, 323.14 361.13, 322.65 364.34 C 322.17 367.55, 322.41 369.75, 322.05 374.79 C 321.69 379.82, 321.47 383.12, 320.85 389.51 C 320.23 395.89, 319.72 399.60, 318.94 406.71 C 318.16 413.81, 317.71 417.70, 316.94 425.04 C 316.18 432.38, 315.83 436.39, 315.10 443.41 C 314.36 450.44, 313.92 453.97, 313.25 460.17 C 312.58 466.38, 312.37 469.48, 311.76 474.43 C 311.14 479.39, 310.59 481.66, 310.18 484.95 C 309.77 488.24, 309.60 489.22, 309.70 490.87 C 309.80 492.53, 310.07 492.76, 310.67 493.22 C 311.26 493.68, 312.13 493.43, 312.67 493.17 C 313.21 492.91, 314.06 491.97, 313.38 491.93 C 312.71 491.89, 309.84 492.51, 309.29 492.96 C 308.74 493.41, 309.85 493.99, 310.63 494.20 C 311.41 494.41, 312.30 494.52, 313.19 494.02 C 314.09 493.52, 314.50 493.38, 315.11 491.69 C 315.71 489.99, 315.96 488.92, 316.21 485.54 C 316.45 482.16, 316.15 479.80, 316.33 474.80 C 316.52 469.79, 316.65 466.73, 317.11 460.52 C 317.57 454.32, 317.98 450.79, 318.65 443.77 C 319.32 436.75, 319.66 432.74, 320.48 425.43 C 321.30 418.11, 321.77 414.25, 322.74 407.18 C 323.72 400.11, 324.39 396.43, 325.37 390.07 C 326.35 383.72, 326.86 380.45, 327.63 375.41 C 328.40 370.37, 329.17 368.19, 329.22 364.88 C 329.28 361.57, 328.84 360.09, 327.89 358.86 C 326.94 357.63, 325.51 357.62, 324.47 358.72" style="stroke: #89b9ad; fill: #89b9ad;"/><path d="M 310.87,361.23 C 311.92 361.78, 312.53 361.45, 313.63 361.29 C 314.73 361.14, 315.07 360.92, 316.36 360.47 C 317.65 360.02, 318.19 359.50, 320.09 359.04 C 321.99 358.58, 323.01 358.29, 325.85 358.17 C 328.69 358.05, 330.51 357.88, 334.29 358.44 C 338.08 359.00, 340.26 359.46, 344.77 360.96 C 349.27 362.47, 351.88 363.52, 356.82 365.99 C 361.75 368.46, 364.44 369.94, 369.43 373.32 C 374.42 376.71, 377.08 378.63, 381.79 382.92 C 386.50 387.20, 388.97 389.72, 392.97 394.74 C 396.97 399.76, 398.87 402.54, 401.77 408.04 C 404.67 413.53, 405.91 416.46, 407.47 422.23 C 409.03 428.00, 409.51 431.11, 409.57 436.89 C 409.63 442.66, 409.24 445.61, 407.78 451.10 C 406.32 456.60, 405.13 459.36, 402.27 464.37 C 399.41 469.39, 397.54 471.81, 393.48 476.18 C 389.41 480.55, 386.92 482.65, 381.95 486.23 C 376.98 489.82, 374.10 491.49, 368.63 494.10 C 363.16 496.71, 360.14 497.76, 354.60 499.28 C 349.06 500.81, 345.98 501.16, 340.94 501.73 C 335.90 502.29, 333.16 502.01, 329.39 502.12 C 325.61 502.22, 324.31 502.05, 322.08 502.25 C 319.85 502.45, 319.09 502.51, 318.24 503.11 C 317.39 503.71, 317.14 504.37, 317.83 505.26 C 318.53 506.16, 319.34 507.05, 321.70 507.58 C 324.06 508.10, 325.66 508.12, 329.64 507.88 C 333.62 507.64, 336.39 507.30, 341.61 506.39 C 346.84 505.47, 350.01 505.04, 355.76 503.31 C 361.51 501.57, 364.66 500.47, 370.37 497.70 C 376.07 494.93, 379.06 493.21, 384.27 489.45 C 389.47 485.69, 392.10 483.51, 396.40 478.90 C 400.70 474.28, 402.71 471.71, 405.76 466.36 C 408.81 461.01, 410.10 458.03, 411.66 452.13 C 413.21 446.22, 413.61 443.02, 413.52 436.84 C 413.43 430.65, 412.88 427.33, 411.21 421.22 C 409.53 415.10, 408.20 412.03, 405.15 406.25 C 402.11 400.48, 400.12 397.61, 395.98 392.36 C 391.84 387.11, 389.30 384.51, 384.47 380.01 C 379.65 375.50, 376.94 373.49, 371.85 369.84 C 366.77 366.20, 364.06 364.61, 359.04 361.80 C 354.01 359.00, 351.38 357.79, 346.72 355.82 C 342.07 353.85, 339.83 353.18, 335.76 351.96 C 331.68 350.74, 329.86 350.23, 326.35 349.73 C 322.84 349.24, 321.10 349.02, 318.23 349.49 C 315.36 349.96, 313.86 350.89, 312.01 352.07 C 310.15 353.26, 309.68 354.10, 308.95 355.40 C 308.23 356.69, 308.00 357.38, 308.38 358.54 C 308.76 359.71, 309.82 360.68, 310.87 361.23" style="stroke: #89b9ad; fill: #89b9ad;"/><path d="M 496.88,437.93 C 496.70 436.60, 496.04 435.70, 494.48 434.58 C 492.92 433.47, 491.74 432.83, 489.07 432.36 C 486.41 431.89, 484.57 431.64, 481.14 432.24 C 477.72 432.83, 475.63 433.57, 471.96 435.33 C 468.29 437.09, 466.50 438.29, 462.79 441.03 C 459.09 443.77, 457.17 445.37, 453.44 449.03 C 449.71 452.69, 447.50 454.90, 444.14 459.34 C 440.79 463.79, 439.15 466.57, 436.65 471.25 C 434.14 475.93, 433.05 478.41, 431.62 482.76 C 430.19 487.11, 429.43 489.30, 429.49 493.00 C 429.56 496.70, 430.17 498.71, 431.94 501.27 C 433.71 503.83, 435.34 504.96, 438.34 505.80 C 441.35 506.63, 443.42 506.54, 446.95 505.46 C 450.49 504.38, 452.26 503.01, 456.02 500.40 C 459.77 497.79, 461.67 496.04, 465.71 492.42 C 469.76 488.81, 472.16 486.57, 476.26 482.31 C 480.36 478.06, 482.52 475.40, 486.22 471.15 C 489.91 466.89, 491.66 464.50, 494.73 461.03 C 497.80 457.55, 499.82 456.16, 501.59 453.77 C 503.36 451.38, 503.53 449.98, 503.57 449.06 C 503.62 448.14, 502.53 448.01, 501.83 449.18 C 501.12 450.34, 500.54 451.73, 500.06 454.89 C 499.58 458.06, 499.77 460.52, 499.43 465.00 C 499.08 469.48, 498.72 472.41, 498.34 477.30 C 497.96 482.19, 497.68 485.17, 497.52 489.46 C 497.36 493.74, 497.00 495.86, 497.51 498.73 C 498.03 501.60, 499.09 502.84, 500.11 503.78 C 501.14 504.73, 501.89 504.52, 502.64 503.44 C 503.39 502.36, 503.64 501.16, 503.87 498.40 C 504.10 495.65, 503.68 493.77, 503.78 489.66 C 503.89 485.55, 503.86 482.63, 504.40 477.88 C 504.93 473.12, 505.66 470.36, 506.46 465.90 C 507.26 461.43, 508.34 459.08, 508.39 455.55 C 508.44 452.02, 508.01 450.13, 506.71 448.22 C 505.41 446.31, 503.92 445.75, 501.87 445.99 C 499.83 446.23, 498.72 447.09, 496.47 449.43 C 494.22 451.77, 493.41 453.98, 490.64 457.71 C 487.87 461.44, 486.17 463.83, 482.62 468.08 C 479.06 472.33, 476.92 474.91, 472.86 478.97 C 468.79 483.03, 466.34 485.17, 462.30 488.38 C 458.26 491.60, 456.16 493.07, 452.64 495.06 C 449.12 497.05, 447.30 497.47, 444.70 498.32 C 442.11 499.18, 441.19 499.41, 439.66 499.33 C 438.14 499.25, 437.83 499.19, 437.08 497.90 C 436.33 496.61, 435.95 495.61, 435.91 492.89 C 435.87 490.18, 435.84 488.20, 436.87 484.34 C 437.91 480.48, 438.86 477.98, 441.11 473.59 C 443.35 469.19, 444.92 466.51, 448.11 462.37 C 451.31 458.23, 453.46 456.15, 457.08 452.88 C 460.69 449.60, 462.67 448.17, 466.17 446.00 C 469.68 443.83, 471.44 442.98, 474.61 442.04 C 477.79 441.10, 479.41 441.30, 482.05 441.28 C 484.69 441.27, 485.79 441.83, 487.81 441.98 C 489.84 442.12, 490.65 442.16, 492.17 442.01 C 493.68 441.86, 494.45 442.03, 495.39 441.21 C 496.34 440.40, 497.06 439.25, 496.88 437.93" style="stroke: #89b9ad; fill: #89b9ad;"/><path d="M 595.15,438.88 C 595.35 437.67, 595.00 436.83, 593.92 435.69 C 592.83 434.56, 591.96 433.82, 589.72 433.19 C 587.48 432.56, 585.78 432.02, 582.71 432.54 C 579.64 433.06, 577.86 433.99, 574.38 435.80 C 570.91 437.61, 568.99 438.77, 565.32 441.58 C 561.66 444.40, 559.61 446.10, 556.07 449.88 C 552.54 453.67, 550.54 456.01, 547.67 460.50 C 544.79 464.98, 543.39 467.61, 541.70 472.31 C 540.00 477.01, 539.35 479.59, 539.19 484.00 C 539.03 488.40, 539.26 490.81, 540.89 494.32 C 542.52 497.84, 544.05 499.67, 547.33 501.57 C 550.60 503.47, 552.94 503.84, 557.26 503.82 C 561.58 503.81, 564.19 503.21, 568.92 501.49 C 573.66 499.77, 576.25 498.36, 580.95 495.22 C 585.64 492.07, 588.16 489.85, 592.38 485.77 C 596.60 481.68, 598.80 479.26, 602.04 474.80 C 605.28 470.34, 606.57 467.82, 608.58 463.47 C 610.59 459.12, 611.54 457.02, 612.08 453.07 C 612.62 449.12, 612.49 446.89, 611.29 443.71 C 610.08 440.54, 608.45 439.07, 606.08 437.18 C 603.70 435.30, 601.85 434.67, 599.40 434.30 C 596.95 433.93, 595.05 434.41, 593.83 435.35 C 592.60 436.28, 592.59 437.74, 593.28 438.97 C 593.97 440.19, 595.61 440.62, 597.28 441.47 C 598.95 442.32, 600.11 442.24, 601.64 443.23 C 603.16 444.21, 604.01 444.54, 604.92 446.38 C 605.82 448.22, 606.36 449.42, 606.15 452.42 C 605.93 455.43, 605.44 457.48, 603.85 461.40 C 602.25 465.33, 601.11 467.84, 598.17 472.04 C 595.23 476.23, 593.12 478.58, 589.13 482.38 C 585.14 486.18, 582.62 488.26, 578.22 491.02 C 573.82 493.79, 571.31 494.88, 567.12 496.20 C 562.93 497.52, 560.61 497.68, 557.29 497.64 C 553.96 497.59, 552.66 497.18, 550.50 495.99 C 548.35 494.80, 547.63 494.07, 546.51 491.70 C 545.38 489.33, 544.84 487.66, 544.88 484.14 C 544.91 480.61, 545.25 478.23, 546.68 474.07 C 548.11 469.91, 549.36 467.40, 552.04 463.33 C 554.71 459.27, 556.65 457.05, 560.03 453.74 C 563.41 450.43, 565.45 448.92, 568.93 446.78 C 572.41 444.65, 574.41 443.97, 577.42 443.07 C 580.42 442.18, 581.82 442.46, 583.97 442.31 C 586.12 442.16, 586.82 442.34, 588.15 442.32 C 589.49 442.30, 589.68 442.34, 590.64 442.22 C 591.59 442.11, 592.03 442.43, 592.93 441.76 C 593.83 441.09, 594.95 440.09, 595.15 438.88" style="stroke: #89b9ad; fill: #89b9ad;"/><path d="M 662.09,403.08 C 661.12 403.87, 660.77 404.52, 660.45 406.72 C 660.13 408.91, 660.45 410.23, 660.50 414.04 C 660.54 417.86, 660.87 420.50, 660.67 425.79 C 660.48 431.08, 660.18 434.37, 659.53 440.49 C 658.88 446.61, 658.29 450.16, 657.41 456.39 C 656.52 462.61, 656.06 466.00, 655.11 471.62 C 654.15 477.25, 653.60 480.05, 652.63 484.52 C 651.67 488.98, 650.73 490.84, 650.27 493.94 C 649.81 497.03, 650.11 498.20, 650.33 499.97 C 650.56 501.74, 650.81 502.18, 651.40 502.79 C 651.99 503.40, 652.56 503.47, 653.28 503.04 C 654.01 502.60, 654.35 502.22, 655.04 500.61 C 655.72 498.99, 656.19 498.01, 656.71 494.96 C 657.22 491.91, 657.08 489.89, 657.63 485.36 C 658.18 480.83, 658.66 477.97, 659.46 472.30 C 660.26 466.63, 660.70 463.25, 661.63 457.00 C 662.57 450.76, 663.19 447.23, 664.12 441.08 C 665.05 434.94, 665.55 431.64, 666.29 426.28 C 667.02 420.92, 667.51 418.25, 667.80 414.27 C 668.09 410.30, 668.25 408.73, 667.75 406.42 C 667.25 404.11, 666.43 403.39, 665.29 402.72 C 664.16 402.05, 663.06 402.28, 662.09 403.08" style="stroke: #89b9ad; fill: #89b9ad;"/><path d="M 642.53,404.39 C 643.88 404.69, 644.85 404.15, 646.98 403.21 C 649.11 402.26, 650.01 401.18, 653.18 399.66 C 656.35 398.15, 658.37 396.78, 662.84 395.64 C 667.30 394.50, 670.12 394.06, 675.50 393.94 C 680.88 393.83, 684.04 394.11, 689.73 395.07 C 695.43 396.04, 698.50 396.67, 703.96 398.78 C 709.42 400.89, 712.31 402.42, 717.04 405.61 C 721.77 408.79, 724.11 410.76, 727.63 414.69 C 731.15 418.62, 732.57 420.76, 734.63 425.26 C 736.70 429.76, 737.41 432.36, 737.95 437.19 C 738.49 442.02, 738.39 444.60, 737.32 449.41 C 736.25 454.22, 735.15 456.69, 732.60 461.26 C 730.04 465.82, 728.26 468.29, 724.54 472.22 C 720.83 476.15, 718.63 477.89, 714.01 480.91 C 709.39 483.92, 706.63 485.08, 701.45 487.29 C 696.27 489.50, 693.30 490.61, 688.12 491.96 C 682.93 493.30, 680.09 493.57, 675.51 494.02 C 670.93 494.47, 668.45 494.00, 665.22 494.22 C 661.99 494.44, 661.12 494.76, 659.37 495.11 C 657.61 495.46, 657.11 495.40, 656.45 495.97 C 655.79 496.53, 655.53 497.14, 656.06 497.94 C 656.59 498.74, 657.20 499.43, 659.11 499.97 C 661.01 500.51, 662.16 500.82, 665.59 500.66 C 669.01 500.50, 671.48 500.03, 676.23 499.17 C 680.98 498.31, 683.95 497.95, 689.34 496.37 C 694.72 494.79, 697.77 493.64, 703.17 491.27 C 708.58 488.90, 711.46 487.72, 716.37 484.52 C 721.28 481.32, 723.71 479.47, 727.74 475.26 C 731.77 471.04, 733.71 468.43, 736.51 463.46 C 739.32 458.49, 740.57 455.75, 741.76 450.40 C 742.95 445.04, 743.08 442.08, 742.45 436.68 C 741.83 431.28, 740.96 428.37, 738.63 423.40 C 736.31 418.43, 734.66 416.08, 730.81 411.83 C 726.96 407.57, 724.44 405.52, 719.37 402.13 C 714.31 398.74, 711.25 397.15, 705.48 394.88 C 699.71 392.60, 696.51 391.92, 690.52 390.75 C 684.53 389.58, 681.30 389.21, 675.53 389.03 C 669.76 388.85, 666.70 389.07, 661.67 389.84 C 656.63 390.62, 654.13 391.50, 650.35 392.89 C 646.58 394.28, 644.82 395.02, 642.79 396.79 C 640.76 398.55, 640.26 400.19, 640.20 401.71 C 640.15 403.23, 641.18 404.09, 642.53 404.39" style="stroke: #89b9ad; fill: #89b9ad;"/><path d="M 829.02,456.43 C 829.20 455.09, 828.86 453.96, 827.55 452.48 C 826.24 450.99, 825.07 449.96, 822.47 449.00 C 819.88 448.05, 818.11 447.69, 814.58 447.69 C 811.05 447.69, 808.95 448.01, 804.84 449.01 C 800.73 450.01, 798.43 450.77, 794.05 452.68 C 789.67 454.60, 787.23 455.81, 782.94 458.58 C 778.64 461.35, 776.36 463.03, 772.58 466.54 C 768.80 470.06, 766.90 472.17, 764.02 476.15 C 761.13 480.13, 759.73 482.36, 758.15 486.44 C 756.57 490.52, 756.06 492.76, 756.11 496.55 C 756.16 500.34, 756.62 502.42, 758.40 505.39 C 760.18 508.36, 761.72 509.95, 765.00 511.40 C 768.28 512.85, 770.68 512.96, 774.79 512.63 C 778.90 512.29, 781.18 511.45, 785.55 509.72 C 789.92 507.98, 792.16 506.70, 796.64 503.94 C 801.12 501.18, 803.61 499.32, 807.95 495.94 C 812.30 492.56, 814.50 490.53, 818.36 487.05 C 822.23 483.57, 824.01 481.64, 827.27 478.54 C 830.53 475.44, 832.41 473.95, 834.66 471.55 C 836.91 469.15, 837.80 468.09, 838.53 466.54 C 839.25 464.99, 838.92 464.12, 838.30 463.79 C 837.67 463.45, 836.44 463.52, 835.40 464.87 C 834.35 466.23, 833.68 467.54, 833.07 470.55 C 832.46 473.57, 832.80 475.90, 832.36 479.95 C 831.92 484.00, 831.40 486.46, 830.87 490.80 C 830.34 495.13, 829.94 497.79, 829.70 501.62 C 829.46 505.46, 829.26 507.35, 829.67 509.96 C 830.08 512.58, 830.81 513.75, 831.74 514.68 C 832.68 515.62, 833.45 515.55, 834.34 514.62 C 835.22 513.69, 835.71 512.54, 836.18 510.04 C 836.64 507.53, 836.40 505.76, 836.67 502.10 C 836.94 498.43, 836.87 495.88, 837.53 491.73 C 838.19 487.58, 838.94 485.25, 839.96 481.34 C 840.97 477.43, 842.16 475.36, 842.62 472.19 C 843.07 469.01, 842.98 467.51, 842.23 465.46 C 841.48 463.41, 840.42 462.56, 838.85 461.94 C 837.28 461.33, 836.23 461.38, 834.39 462.39 C 832.55 463.39, 831.85 464.48, 829.64 466.95 C 827.43 469.42, 826.27 471.44, 823.34 474.73 C 820.41 478.01, 818.68 479.93, 814.99 483.39 C 811.31 486.84, 809.14 488.80, 804.93 492.00 C 800.72 495.20, 798.23 496.95, 793.94 499.37 C 789.66 501.78, 787.41 502.78, 783.49 504.07 C 779.57 505.36, 777.49 505.68, 774.36 505.80 C 771.24 505.93, 769.87 505.48, 767.86 504.68 C 765.85 503.88, 765.36 503.45, 764.31 501.78 C 763.27 500.12, 762.78 499.03, 762.63 496.36 C 762.49 493.69, 762.45 491.85, 763.60 488.42 C 764.75 485.00, 765.86 482.85, 768.36 479.24 C 770.86 475.62, 772.62 473.56, 776.10 470.35 C 779.59 467.13, 781.76 465.58, 785.79 463.15 C 789.83 460.73, 792.21 459.68, 796.26 458.23 C 800.32 456.78, 802.52 456.25, 806.06 455.91 C 809.59 455.56, 811.28 456.05, 813.96 456.49 C 816.65 456.92, 817.59 457.56, 819.48 458.08 C 821.38 458.61, 822.02 458.88, 823.46 459.09 C 824.90 459.31, 825.58 459.69, 826.69 459.16 C 827.80 458.63, 828.85 457.76, 829.02 456.43" style="stroke: #89b9ad; fill: #89b9ad;"/><path d="M 900.68,459.18 C 900.47 457.96, 899.80 457.33, 898.51 456.57 C 897.22 455.80, 896.39 455.46, 894.24 455.36 C 892.08 455.26, 890.47 455.12, 887.75 456.05 C 885.03 456.99, 883.40 457.86, 880.65 460.03 C 877.89 462.19, 876.61 463.78, 873.98 466.89 C 871.34 469.99, 869.79 471.81, 867.46 475.54 C 865.14 479.28, 863.87 481.47, 862.36 485.56 C 860.84 489.65, 860.19 491.91, 859.88 496.00 C 859.57 500.09, 859.57 502.38, 860.82 506.00 C 862.07 509.62, 863.29 511.54, 866.14 514.10 C 868.99 516.66, 871.17 517.70, 875.06 518.78 C 878.96 519.86, 881.31 519.93, 885.60 519.48 C 889.89 519.03, 892.19 518.21, 896.51 516.54 C 900.84 514.88, 903.14 513.76, 907.22 511.15 C 911.31 508.53, 913.43 506.87, 916.93 503.46 C 920.43 500.05, 922.05 497.93, 924.72 494.11 C 927.39 490.30, 928.61 488.32, 930.28 484.39 C 931.96 480.47, 932.68 478.36, 933.10 474.51 C 933.52 470.66, 933.38 468.51, 932.38 465.15 C 931.39 461.78, 930.30 460.18, 928.10 457.68 C 925.90 455.17, 924.28 454.18, 921.41 452.63 C 918.53 451.08, 916.65 450.36, 913.73 449.90 C 910.81 449.45, 909.05 449.77, 906.81 450.35 C 904.57 450.92, 903.33 451.66, 902.52 452.78 C 901.71 453.90, 901.91 454.95, 902.77 455.93 C 903.63 456.92, 904.96 457.13, 906.81 457.71 C 908.65 458.28, 909.82 458.28, 911.99 458.81 C 914.17 459.35, 915.57 459.55, 917.68 460.39 C 919.79 461.23, 920.98 461.61, 922.54 463.02 C 924.09 464.42, 924.64 465.21, 925.45 467.40 C 926.25 469.59, 926.69 471.02, 926.56 473.97 C 926.43 476.93, 926.07 478.77, 924.78 482.17 C 923.49 485.56, 922.46 487.49, 920.13 490.96 C 917.80 494.44, 916.30 496.46, 913.13 499.55 C 909.95 502.64, 907.99 504.14, 904.26 506.42 C 900.53 508.71, 898.32 509.66, 894.47 511.00 C 890.63 512.34, 888.54 512.87, 885.03 513.13 C 881.51 513.38, 879.77 513.11, 876.90 512.28 C 874.03 511.44, 872.64 510.65, 870.68 508.96 C 868.73 507.27, 868.01 506.30, 867.13 503.81 C 866.26 501.31, 866.08 499.68, 866.32 496.48 C 866.55 493.28, 866.96 491.26, 868.30 487.80 C 869.64 484.34, 870.80 482.35, 873.01 479.18 C 875.21 476.00, 876.78 474.31, 879.32 471.94 C 881.86 469.56, 883.42 468.62, 885.69 467.30 C 887.96 465.98, 888.87 465.83, 890.67 465.34 C 892.47 464.86, 893.35 465.15, 894.70 464.87 C 896.06 464.60, 896.45 464.40, 897.43 463.97 C 898.41 463.54, 898.94 463.66, 899.59 462.70 C 900.24 461.74, 900.90 460.41, 900.68 459.18" style="stroke: #89b9ad; fill: #89b9ad;"/><path d="M 983.46,402.12 C 982.30 402.65, 981.90 403.24, 980.94 405.02 C 979.98 406.79, 979.20 408.21, 978.65 410.98 C 978.10 413.75, 978.06 416.01, 978.18 418.88 C 978.29 421.75, 978.69 423.18, 979.23 425.34 C 979.78 427.50, 979.99 428.73, 980.91 429.69 C 981.82 430.64, 982.65 430.78, 983.80 430.10 C 984.95 429.41, 985.58 428.28, 986.63 426.24 C 987.69 424.21, 988.42 422.78, 989.09 419.93 C 989.76 417.09, 990.03 414.85, 989.98 412.00 C 989.93 409.15, 989.50 407.63, 988.86 405.69 C 988.21 403.76, 987.83 403.05, 986.75 402.34 C 985.67 401.62, 984.62 401.58, 983.46 402.12" style="stroke: #89b9ad; fill: #89b9ad;"/><path d="M 1056.76,453.67 C 1056.07 452.55, 1055.20 452.15, 1053.39 451.64 C 1051.57 451.12, 1050.34 450.83, 1047.69 451.09 C 1045.05 451.34, 1043.27 451.84, 1040.15 452.92 C 1037.04 454.00, 1035.31 454.90, 1032.12 456.49 C 1028.93 458.09, 1027.11 458.98, 1024.22 460.90 C 1021.32 462.81, 1019.62 463.68, 1017.63 466.06 C 1015.65 468.45, 1014.88 470.05, 1014.30 472.84 C 1013.72 475.62, 1013.85 477.24, 1014.74 479.99 C 1015.64 482.73, 1016.51 484.31, 1018.78 486.57 C 1021.05 488.83, 1022.97 489.47, 1026.08 491.28 C 1029.18 493.09, 1031.09 493.81, 1034.31 495.60 C 1037.53 497.39, 1039.29 498.40, 1042.17 500.23 C 1045.05 502.06, 1046.49 503.24, 1048.72 504.76 C 1050.94 506.27, 1052.01 506.80, 1053.30 507.80 C 1054.59 508.81, 1054.93 509.16, 1055.16 509.80 C 1055.39 510.44, 1055.26 510.46, 1054.43 510.99 C 1053.61 511.51, 1052.85 511.52, 1051.02 512.42 C 1049.19 513.31, 1048.13 514.25, 1045.28 515.46 C 1042.44 516.67, 1040.61 517.47, 1036.79 518.46 C 1032.97 519.45, 1030.53 519.87, 1026.20 520.40 C 1021.86 520.94, 1019.41 521.14, 1015.11 521.13 C 1010.82 521.13, 1008.49 521.00, 1004.73 520.37 C 1000.97 519.74, 999.21 518.98, 996.29 517.98 C 993.37 516.99, 992.06 516.15, 990.12 515.39 C 988.19 514.64, 987.61 514.45, 986.60 514.21 C 985.59 513.96, 985.47 514.20, 985.05 514.17 C 984.64 514.14, 984.95 514.16, 984.52 514.07 C 984.09 513.97, 983.41 513.43, 982.89 513.71 C 982.38 513.99, 981.93 514.45, 981.95 515.46 C 981.97 516.48, 982.00 517.46, 983.00 518.80 C 984.01 520.14, 984.73 520.96, 986.98 522.15 C 989.24 523.35, 990.91 523.92, 994.30 524.77 C 997.68 525.63, 999.75 525.99, 1003.91 526.44 C 1008.07 526.88, 1010.53 526.99, 1015.11 526.99 C 1019.69 526.99, 1022.20 526.80, 1026.80 526.44 C 1031.41 526.08, 1033.89 525.81, 1038.14 525.18 C 1042.39 524.54, 1044.52 524.30, 1048.03 523.28 C 1051.54 522.25, 1053.30 521.74, 1055.69 520.05 C 1058.09 518.36, 1058.94 517.06, 1060.01 514.81 C 1061.08 512.57, 1061.30 511.21, 1061.03 508.84 C 1060.77 506.48, 1060.22 505.16, 1058.70 503.00 C 1057.18 500.85, 1055.94 499.91, 1053.41 498.08 C 1050.89 496.25, 1049.12 495.65, 1046.06 493.85 C 1043.00 492.06, 1041.22 491.00, 1038.09 489.10 C 1034.97 487.20, 1033.12 486.18, 1030.46 484.34 C 1027.79 482.51, 1026.61 481.38, 1024.77 479.93 C 1022.93 478.48, 1022.05 478.17, 1021.25 477.10 C 1020.46 476.03, 1020.34 475.65, 1020.79 474.57 C 1021.24 473.48, 1021.93 473.03, 1023.51 471.68 C 1025.09 470.34, 1026.28 469.37, 1028.70 467.85 C 1031.12 466.34, 1032.79 465.28, 1035.62 464.12 C 1038.44 462.96, 1040.08 462.67, 1042.82 462.05 C 1045.55 461.43, 1047.07 461.53, 1049.29 461.00 C 1051.52 460.47, 1052.43 460.15, 1053.93 459.40 C 1055.44 458.65, 1056.27 458.39, 1056.83 457.24 C 1057.40 456.09, 1057.45 454.79, 1056.76 453.67" style="stroke: #89b9ad; fill: #89b9ad;"/><path d="M 1220.96,394.76 C 1219.91 395.49, 1219.40 396.19, 1218.96 398.38 C 1218.52 400.56, 1218.80 401.87, 1218.77 405.70 C 1218.74 409.52, 1218.97 412.13, 1218.81 417.51 C 1218.65 422.89, 1218.49 426.11, 1217.97 432.59 C 1217.45 439.07, 1217.02 442.87, 1216.22 449.91 C 1215.42 456.94, 1214.86 460.68, 1213.97 467.75 C 1213.07 474.83, 1212.67 478.54, 1211.76 485.27 C 1210.86 491.99, 1210.31 495.40, 1209.44 501.36 C 1208.58 507.32, 1208.18 510.40, 1207.43 515.06 C 1206.68 519.72, 1205.87 521.64, 1205.68 524.66 C 1205.50 527.69, 1206.04 528.60, 1206.50 530.18 C 1206.96 531.75, 1207.33 532.11, 1207.96 532.55 C 1208.60 532.99, 1209.14 532.86, 1209.69 532.39 C 1210.25 531.92, 1210.25 531.65, 1210.73 530.22 C 1211.22 528.78, 1211.81 528.12, 1212.11 525.20 C 1212.42 522.27, 1212.00 520.26, 1212.27 515.59 C 1212.54 510.92, 1212.83 507.84, 1213.46 501.87 C 1214.08 495.89, 1214.58 492.46, 1215.40 485.73 C 1216.22 479.00, 1216.63 475.28, 1217.54 468.21 C 1218.46 461.14, 1219.04 457.41, 1219.99 450.38 C 1220.95 443.34, 1221.45 439.53, 1222.30 433.05 C 1223.16 426.57, 1223.52 423.36, 1224.27 417.97 C 1225.02 412.58, 1225.65 409.99, 1226.04 406.10 C 1226.44 402.20, 1226.60 400.76, 1226.23 398.49 C 1225.86 396.22, 1225.25 395.49, 1224.20 394.75 C 1223.14 394.00, 1222.01 394.04, 1220.96 394.76" style="stroke: #89b9ad; fill: #89b9ad;"/><path d="M 1192.37,470.94 C 1193.05 471.94, 1193.69 472.36, 1195.51 472.76 C 1197.33 473.16, 1198.47 473.29, 1201.45 472.95 C 1204.44 472.60, 1206.28 471.69, 1210.45 471.02 C 1214.63 470.35, 1217.25 470.12, 1222.32 469.59 C 1227.40 469.07, 1230.80 468.86, 1235.82 468.38 C 1240.84 467.91, 1243.60 467.82, 1247.44 467.21 C 1251.28 466.61, 1253.55 466.33, 1255.02 465.35 C 1256.48 464.36, 1256.36 463.00, 1254.74 462.29 C 1253.13 461.58, 1250.83 461.70, 1246.94 461.80 C 1243.06 461.89, 1240.34 462.37, 1235.33 462.77 C 1230.32 463.17, 1226.96 463.53, 1221.88 463.78 C 1216.79 464.04, 1214.19 464.04, 1209.91 464.03 C 1205.63 464.02, 1203.52 463.42, 1200.47 463.71 C 1197.43 464.00, 1196.33 464.68, 1194.66 465.49 C 1192.99 466.30, 1192.58 466.66, 1192.12 467.75 C 1191.67 468.84, 1191.70 469.94, 1192.37 470.94" style="stroke: #89b9ad; fill: #89b9ad;"/><path d="M 1317.75,464.23 C 1317.21 462.98, 1316.31 462.32, 1314.43 461.57 C 1312.56 460.82, 1311.17 460.35, 1308.38 460.49 C 1305.60 460.64, 1303.75 461.08, 1300.49 462.29 C 1297.23 463.50, 1295.46 464.44, 1292.10 466.54 C 1288.74 468.64, 1286.96 469.91, 1283.69 472.80 C 1280.42 475.69, 1278.65 477.44, 1275.75 480.98 C 1272.85 484.52, 1271.27 486.50, 1269.18 490.50 C 1267.09 494.49, 1266.13 496.82, 1265.29 500.96 C 1264.45 505.11, 1264.25 507.43, 1264.98 511.22 C 1265.72 515.01, 1266.52 517.09, 1268.98 519.92 C 1271.44 522.76, 1273.45 524.04, 1277.30 525.40 C 1281.14 526.75, 1283.62 526.93, 1288.22 526.70 C 1292.83 526.46, 1295.39 525.82, 1300.33 524.23 C 1305.27 522.64, 1308.08 521.38, 1312.92 518.73 C 1317.76 516.09, 1320.32 514.33, 1324.54 510.99 C 1328.76 507.66, 1330.71 505.72, 1334.02 502.06 C 1337.34 498.39, 1338.84 496.36, 1341.12 492.65 C 1343.41 488.94, 1344.45 487.16, 1345.46 483.52 C 1346.46 479.89, 1346.72 477.79, 1346.15 474.46 C 1345.58 471.12, 1344.65 469.37, 1342.61 466.85 C 1340.57 464.32, 1339.02 463.19, 1335.95 461.83 C 1332.88 460.47, 1330.77 460.18, 1327.27 460.05 C 1323.76 459.91, 1321.70 460.54, 1318.42 461.15 C 1315.14 461.76, 1313.33 462.27, 1310.86 463.11 C 1308.38 463.95, 1307.42 464.46, 1306.04 465.34 C 1304.67 466.22, 1304.52 466.88, 1303.98 467.52 C 1303.44 468.15, 1303.55 468.02, 1303.36 468.51 C 1303.17 469.00, 1302.82 469.39, 1303.04 469.97 C 1303.26 470.55, 1303.50 470.96, 1304.45 471.41 C 1305.41 471.87, 1306.06 472.16, 1307.81 472.24 C 1309.56 472.32, 1310.72 472.32, 1313.20 471.82 C 1315.68 471.33, 1317.43 470.42, 1320.22 469.76 C 1323.01 469.11, 1324.60 468.60, 1327.16 468.55 C 1329.71 468.49, 1330.99 468.87, 1332.98 469.48 C 1334.96 470.09, 1335.88 470.32, 1337.08 471.58 C 1338.28 472.84, 1338.54 473.68, 1338.96 475.76 C 1339.38 477.85, 1339.72 479.21, 1339.18 482.02 C 1338.64 484.83, 1338.06 486.50, 1336.26 489.83 C 1334.46 493.16, 1333.15 495.23, 1330.19 498.69 C 1327.24 502.15, 1325.42 504.03, 1321.49 507.15 C 1317.56 510.27, 1315.09 511.93, 1310.55 514.31 C 1306.00 516.69, 1303.26 517.79, 1298.76 519.06 C 1294.26 520.34, 1291.88 520.66, 1288.03 520.70 C 1284.18 520.73, 1282.31 520.28, 1279.51 519.24 C 1276.72 518.20, 1275.68 517.37, 1274.06 515.51 C 1272.44 513.65, 1271.97 512.63, 1271.44 509.96 C 1270.91 507.28, 1270.80 505.49, 1271.41 502.15 C 1272.02 498.81, 1272.70 496.72, 1274.49 493.27 C 1276.29 489.81, 1277.72 487.97, 1280.39 484.87 C 1283.06 481.76, 1284.79 480.14, 1287.83 477.76 C 1290.87 475.38, 1292.56 474.35, 1295.60 472.97 C 1298.64 471.59, 1300.28 471.40, 1303.01 470.85 C 1305.74 470.29, 1307.08 470.49, 1309.24 470.20 C 1311.40 469.91, 1312.22 469.86, 1313.81 469.39 C 1315.39 468.92, 1316.36 468.87, 1317.15 467.84 C 1317.94 466.81, 1318.30 465.49, 1317.75 464.23" style="stroke: #89b9ad; fill: #89b9ad;"/><path d="M 1412.08,471.92 C 1412.15 470.64, 1411.89 469.77, 1410.63 468.44 C 1409.37 467.11, 1408.26 466.15, 1405.77 465.26 C 1403.29 464.38, 1401.52 463.89, 1398.21 464.02 C 1394.90 464.15, 1392.86 464.65, 1389.22 465.93 C 1385.59 467.20, 1383.63 468.15, 1380.04 470.39 C 1376.44 472.63, 1374.49 474.06, 1371.25 477.12 C 1368.02 480.18, 1366.40 481.97, 1363.86 485.69 C 1361.31 489.41, 1360.06 491.59, 1358.53 495.72 C 1356.99 499.85, 1356.32 502.20, 1356.18 506.35 C 1356.04 510.49, 1356.40 512.79, 1357.82 516.44 C 1359.24 520.10, 1360.49 522.08, 1363.27 524.62 C 1366.06 527.17, 1368.01 528.16, 1371.75 529.17 C 1375.49 530.18, 1377.75 530.15, 1381.99 529.66 C 1386.23 529.18, 1388.62 528.51, 1392.97 526.74 C 1397.31 524.98, 1399.59 523.58, 1403.73 520.83 C 1407.87 518.09, 1410.06 516.46, 1413.67 513.02 C 1417.28 509.58, 1419.02 507.55, 1421.78 503.64 C 1424.54 499.72, 1425.82 497.56, 1427.47 493.46 C 1429.13 489.36, 1429.61 487.10, 1430.05 483.15 C 1430.50 479.21, 1430.50 477.08, 1429.70 473.74 C 1428.90 470.39, 1427.89 468.78, 1426.05 466.42 C 1424.20 464.06, 1422.64 463.09, 1420.47 461.94 C 1418.31 460.80, 1417.00 460.69, 1415.23 460.69 C 1413.47 460.69, 1412.44 461.11, 1411.64 461.95 C 1410.85 462.79, 1410.86 463.87, 1411.24 464.87 C 1411.62 465.87, 1412.45 466.17, 1413.52 466.94 C 1414.60 467.72, 1415.26 467.90, 1416.60 468.75 C 1417.93 469.59, 1419.01 469.81, 1420.21 471.18 C 1421.40 472.56, 1421.89 473.32, 1422.57 475.62 C 1423.26 477.92, 1423.74 479.50, 1423.65 482.66 C 1423.55 485.82, 1423.35 487.84, 1422.09 491.42 C 1420.83 495.00, 1419.76 497.01, 1417.35 500.56 C 1414.93 504.10, 1413.33 506.02, 1410.01 509.15 C 1406.68 512.28, 1404.57 513.79, 1400.73 516.20 C 1396.90 518.61, 1394.70 519.80, 1390.83 521.21 C 1386.95 522.63, 1384.81 523.01, 1381.36 523.29 C 1377.90 523.56, 1376.23 523.36, 1373.55 522.61 C 1370.86 521.85, 1369.83 521.25, 1367.92 519.52 C 1366.01 517.79, 1365.10 516.57, 1364.01 513.96 C 1362.92 511.36, 1362.45 509.73, 1362.48 506.50 C 1362.52 503.27, 1362.95 501.29, 1364.21 497.81 C 1365.47 494.33, 1366.55 492.32, 1368.80 489.11 C 1371.05 485.90, 1372.54 484.31, 1375.47 481.75 C 1378.40 479.19, 1380.29 477.97, 1383.45 476.32 C 1386.61 474.67, 1388.37 474.02, 1391.28 473.51 C 1394.19 473.01, 1395.63 473.55, 1397.98 473.81 C 1400.34 474.07, 1401.22 474.49, 1403.06 474.83 C 1404.89 475.17, 1405.70 475.51, 1407.15 475.52 C 1408.59 475.52, 1409.31 475.57, 1410.30 474.85 C 1411.28 474.13, 1412.01 473.20, 1412.08 471.92" style="stroke: #89b9ad; fill: #89b9ad;"/><path d="M 1470.51,397.10 C 1469.42 397.75, 1468.72 398.36, 1468.21 400.59 C 1467.70 402.81, 1467.97 404.28, 1467.95 408.22 C 1467.93 412.16, 1468.28 414.76, 1468.12 420.29 C 1467.96 425.82, 1467.84 429.20, 1467.17 435.86 C 1466.49 442.51, 1465.82 446.38, 1464.76 453.55 C 1463.70 460.72, 1463.01 464.75, 1461.87 471.73 C 1460.72 478.71, 1460.09 482.27, 1459.06 488.46 C 1458.03 494.65, 1457.50 497.68, 1456.72 502.68 C 1455.95 507.68, 1455.33 510.11, 1455.19 513.47 C 1455.06 516.83, 1455.56 517.81, 1456.05 519.50 C 1456.54 521.18, 1457.00 521.46, 1457.64 521.90 C 1458.29 522.34, 1458.74 522.22, 1459.28 521.72 C 1459.82 521.21, 1459.95 520.96, 1460.34 519.37 C 1460.74 517.78, 1461.07 517.01, 1461.26 513.77 C 1461.45 510.54, 1460.97 508.14, 1461.30 503.19 C 1461.63 498.24, 1462.07 495.22, 1462.91 489.04 C 1463.74 482.86, 1464.36 479.29, 1465.48 472.31 C 1466.59 465.33, 1467.30 461.31, 1468.48 454.13 C 1469.66 446.94, 1470.38 443.06, 1471.38 436.38 C 1472.38 429.70, 1472.71 426.28, 1473.46 420.72 C 1474.20 415.17, 1474.70 412.55, 1475.10 408.60 C 1475.50 404.64, 1475.75 403.20, 1475.47 400.95 C 1475.18 398.69, 1474.65 398.08, 1473.65 397.31 C 1472.66 396.54, 1471.60 396.45, 1470.51 397.10" style="stroke: #89b9ad; fill: #89b9ad;"/><path d="M 1518.67,401.54 C 1517.74 402.35, 1517.46 402.95, 1517.17 405.07 C 1516.89 407.19, 1517.24 408.49, 1517.25 412.14 C 1517.26 415.78, 1517.54 418.18, 1517.23 423.28 C 1516.92 428.38, 1516.57 431.65, 1515.70 437.64 C 1514.84 443.63, 1514.21 447.06, 1512.91 453.23 C 1511.62 459.39, 1510.74 462.80, 1509.23 468.48 C 1507.72 474.15, 1506.80 476.97, 1505.35 481.61 C 1503.91 486.24, 1502.81 488.28, 1501.99 491.65 C 1501.18 495.02, 1500.82 496.46, 1501.29 498.47 C 1501.75 500.47, 1502.67 501.16, 1504.32 501.66 C 1505.96 502.17, 1507.50 502.24, 1509.51 500.97 C 1511.53 499.70, 1512.29 498.29, 1514.37 495.32 C 1516.45 492.34, 1517.22 489.92, 1519.93 486.10 C 1522.64 482.28, 1524.37 480.00, 1527.94 476.22 C 1531.52 472.45, 1533.66 470.35, 1537.81 467.22 C 1541.95 464.09, 1544.34 462.63, 1548.66 460.56 C 1552.97 458.50, 1555.35 457.75, 1559.38 456.89 C 1563.41 456.03, 1565.47 455.97, 1568.81 456.27 C 1572.15 456.56, 1573.61 457.04, 1576.08 458.37 C 1578.55 459.70, 1579.50 460.64, 1581.15 462.92 C 1582.81 465.20, 1583.57 466.66, 1584.36 469.75 C 1585.15 472.84, 1585.39 474.75, 1585.10 478.36 C 1584.80 481.97, 1584.36 484.07, 1582.88 487.81 C 1581.40 491.54, 1580.28 493.61, 1577.71 497.05 C 1575.14 500.48, 1573.48 502.22, 1570.03 504.99 C 1566.59 507.77, 1564.47 509.00, 1560.50 510.93 C 1556.53 512.85, 1554.17 513.66, 1550.19 514.63 C 1546.21 515.60, 1544.18 515.83, 1540.60 515.76 C 1537.01 515.69, 1535.19 515.31, 1532.27 514.28 C 1529.35 513.26, 1528.25 511.97, 1526.00 510.64 C 1523.76 509.31, 1522.84 508.51, 1521.05 507.61 C 1519.25 506.71, 1518.25 506.03, 1517.03 506.14 C 1515.82 506.25, 1515.04 506.88, 1514.99 508.16 C 1514.93 509.45, 1515.37 510.70, 1516.76 512.56 C 1518.15 514.42, 1519.21 515.84, 1521.95 517.47 C 1524.69 519.09, 1526.73 519.84, 1530.47 520.69 C 1534.21 521.54, 1536.42 521.85, 1540.65 521.72 C 1544.87 521.59, 1547.13 521.22, 1551.57 520.02 C 1556.02 518.83, 1558.51 517.92, 1562.87 515.75 C 1567.23 513.58, 1569.54 512.24, 1573.38 509.17 C 1577.23 506.10, 1579.12 504.23, 1582.10 500.40 C 1585.08 496.58, 1586.43 494.32, 1588.28 490.04 C 1590.12 485.76, 1590.82 483.35, 1591.32 478.98 C 1591.81 474.60, 1591.73 472.17, 1590.76 468.16 C 1589.79 464.16, 1588.82 462.03, 1586.47 458.94 C 1584.11 455.85, 1582.42 454.42, 1578.96 452.73 C 1575.51 451.03, 1573.34 450.66, 1569.19 450.47 C 1565.03 450.27, 1562.72 450.63, 1558.18 451.76 C 1553.65 452.90, 1551.16 453.84, 1546.50 456.15 C 1541.85 458.46, 1539.35 460.04, 1534.90 463.31 C 1530.44 466.58, 1528.20 468.74, 1524.23 472.50 C 1520.25 476.25, 1518.33 478.52, 1515.01 482.07 C 1511.69 485.62, 1509.88 487.46, 1507.63 490.25 C 1505.38 493.03, 1504.46 494.14, 1503.77 496.00 C 1503.07 497.86, 1503.64 498.95, 1504.14 499.54 C 1504.65 500.14, 1505.50 500.26, 1506.29 498.97 C 1507.09 497.68, 1507.37 496.33, 1508.12 493.11 C 1508.88 489.89, 1509.02 487.59, 1510.08 482.87 C 1511.14 478.16, 1512.02 475.30, 1513.42 469.55 C 1514.82 463.80, 1515.71 460.35, 1517.09 454.13 C 1518.47 447.90, 1519.15 444.46, 1520.32 438.42 C 1521.49 432.39, 1522.06 429.14, 1522.95 423.94 C 1523.83 418.75, 1524.43 416.32, 1524.75 412.44 C 1525.07 408.57, 1525.13 406.86, 1524.55 404.57 C 1523.96 402.28, 1523.01 401.60, 1521.83 401.00 C 1520.66 400.39, 1519.60 400.72, 1518.67 401.54" style="stroke: #89b9ad; fill: #89b9ad;"/><path d="M 1659.94,466.88 C 1659.24 465.61, 1658.16 464.73, 1655.89 464.08 C 1653.61 463.44, 1651.79 463.10, 1648.55 463.64 C 1645.30 464.18, 1643.17 464.96, 1639.66 466.77 C 1636.15 468.57, 1634.33 469.88, 1630.99 472.67 C 1627.65 475.45, 1625.81 477.15, 1622.97 480.70 C 1620.13 484.24, 1618.76 486.37, 1616.79 490.39 C 1614.81 494.41, 1613.79 496.64, 1613.08 500.79 C 1612.37 504.94, 1612.29 507.32, 1613.24 511.14 C 1614.19 514.96, 1615.21 517.00, 1617.82 519.89 C 1620.43 522.78, 1622.37 524.11, 1626.30 525.58 C 1630.23 527.04, 1632.73 527.34, 1637.47 527.22 C 1642.20 527.10, 1644.89 526.53, 1649.96 524.99 C 1655.04 523.46, 1657.93 522.29, 1662.84 519.53 C 1667.75 516.78, 1670.26 514.84, 1674.50 511.22 C 1678.74 507.60, 1680.78 505.51, 1684.03 501.43 C 1687.28 497.35, 1688.89 495.09, 1690.76 490.83 C 1692.62 486.58, 1693.20 484.24, 1693.37 480.16 C 1693.54 476.07, 1693.20 473.74, 1691.59 470.42 C 1689.98 467.09, 1688.47 465.51, 1685.31 463.53 C 1682.15 461.55, 1679.86 461.01, 1675.78 460.52 C 1671.69 460.03, 1669.12 460.46, 1664.90 461.10 C 1660.67 461.74, 1658.07 462.37, 1654.64 463.72 C 1651.22 465.08, 1648.91 466.38, 1647.79 467.89 C 1646.66 469.40, 1647.27 470.81, 1649.02 471.27 C 1650.78 471.73, 1653.17 470.82, 1656.55 470.17 C 1659.93 469.51, 1662.25 468.56, 1665.95 467.99 C 1669.65 467.43, 1671.89 467.05, 1675.05 467.34 C 1678.21 467.62, 1679.63 468.22, 1681.76 469.43 C 1683.88 470.64, 1684.56 471.26, 1685.68 473.38 C 1686.81 475.51, 1687.34 476.96, 1687.37 480.04 C 1687.40 483.12, 1687.27 485.10, 1685.83 488.78 C 1684.39 492.45, 1683.05 494.64, 1680.17 498.41 C 1677.29 502.18, 1675.35 504.24, 1671.41 507.61 C 1667.48 510.98, 1665.07 512.79, 1660.49 515.26 C 1655.91 517.73, 1653.13 518.71, 1648.52 519.94 C 1643.91 521.18, 1641.41 521.47, 1637.43 521.42 C 1633.44 521.36, 1631.52 520.86, 1628.58 519.67 C 1625.64 518.49, 1624.52 517.51, 1622.71 515.49 C 1620.90 513.47, 1620.23 512.29, 1619.53 509.56 C 1618.84 506.83, 1618.68 505.12, 1619.22 501.82 C 1619.76 498.53, 1620.54 496.52, 1622.24 493.08 C 1623.94 489.63, 1625.16 487.64, 1627.73 484.61 C 1630.29 481.58, 1632.06 480.06, 1635.07 477.93 C 1638.07 475.80, 1639.76 474.95, 1642.75 473.95 C 1645.74 472.96, 1647.45 473.35, 1650.02 472.96 C 1652.59 472.58, 1653.74 472.55, 1655.61 472.04 C 1657.49 471.54, 1658.54 471.47, 1659.40 470.43 C 1660.27 469.40, 1660.64 468.15, 1659.94 466.88" style="stroke: #89b9ad; fill: #89b9ad;"/><path d="M 1736.35,465.75 C 1734.96 466.03, 1733.95 466.74, 1732.58 468.67 C 1731.20 470.60, 1730.60 472.10, 1729.48 475.40 C 1728.35 478.71, 1727.98 481.03, 1726.96 485.17 C 1725.95 489.31, 1725.46 491.66, 1724.41 496.10 C 1723.36 500.53, 1722.78 502.93, 1721.72 507.33 C 1720.65 511.73, 1719.98 514.13, 1719.09 518.09 C 1718.20 522.05, 1717.70 524.16, 1717.27 527.14 C 1716.84 530.11, 1716.77 531.14, 1716.96 532.95 C 1717.15 534.76, 1717.73 535.40, 1718.23 536.19 C 1718.73 536.97, 1719.06 536.75, 1719.48 536.90 C 1719.89 537.05, 1719.88 537.01, 1720.30 536.92 C 1720.72 536.84, 1720.96 537.09, 1721.58 536.46 C 1722.20 535.84, 1722.76 535.44, 1723.40 533.78 C 1724.04 532.12, 1724.40 531.08, 1724.78 528.16 C 1725.16 525.25, 1724.78 523.10, 1725.30 519.20 C 1725.82 515.30, 1726.39 512.97, 1727.38 508.66 C 1728.37 504.35, 1729.00 501.93, 1730.25 497.64 C 1731.50 493.34, 1732.22 491.07, 1733.64 487.20 C 1735.06 483.33, 1736.14 481.37, 1737.35 478.29 C 1738.57 475.20, 1739.28 473.99, 1739.71 471.78 C 1740.14 469.57, 1740.17 468.46, 1739.50 467.26 C 1738.83 466.05, 1737.73 465.47, 1736.35 465.75" style="stroke: #89b9ad; fill: #89b9ad;"/><path d="M 1714.46,483.36 C 1714.22 484.51, 1714.46 484.94, 1715.13 486.40 C 1715.81 487.86, 1716.15 488.89, 1717.85 490.65 C 1719.56 492.40, 1721.08 493.09, 1723.68 495.17 C 1726.28 497.25, 1727.79 498.42, 1730.84 501.03 C 1733.90 503.65, 1735.58 505.22, 1738.96 508.26 C 1742.33 511.30, 1744.02 513.15, 1747.72 516.22 C 1751.41 519.28, 1753.78 520.93, 1757.42 523.57 C 1761.07 526.22, 1762.97 527.76, 1765.94 529.43 C 1768.91 531.11, 1770.20 531.42, 1772.27 531.94 C 1774.33 532.46, 1775.29 532.44, 1776.29 532.04 C 1777.29 531.64, 1777.57 530.93, 1777.26 529.93 C 1776.95 528.93, 1776.30 528.33, 1774.73 527.03 C 1773.17 525.72, 1772.23 525.10, 1769.44 523.42 C 1766.66 521.74, 1764.41 520.95, 1760.79 518.64 C 1757.17 516.32, 1754.88 514.79, 1751.34 511.85 C 1747.80 508.91, 1746.21 507.08, 1743.07 503.93 C 1739.94 500.78, 1738.34 499.10, 1735.67 496.11 C 1733.00 493.11, 1731.90 491.52, 1729.72 488.95 C 1727.53 486.39, 1726.69 484.95, 1724.75 483.29 C 1722.80 481.62, 1721.68 481.16, 1720.00 480.63 C 1718.33 480.10, 1717.48 480.10, 1716.37 480.65 C 1715.26 481.19, 1714.71 482.21, 1714.46 483.36" style="stroke: #89b9ad; fill: #89b9ad;"/></svg>