<svg xmlns="http://www.w3.org/2000/svg" id="canvas" viewBox="494.089 325.598 930.394 218.156"><path d="M 570.27,330.17 C 568.95 331.56, 568.94 332.83, 569.24 335.93 C 569.54 339.04, 570.84 340.11, 571.77 345.71 C 572.70 351.31, 573.08 355.16, 573.88 363.93 C 574.68 372.71, 574.87 378.57, 575.78 389.59 C 576.68 400.60, 577.06 407.50, 578.40 419.00 C 579.74 430.50, 580.94 436.37, 582.46 447.08 C 583.99 457.78, 584.79 463.17, 586.03 472.53 C 587.28 481.88, 587.63 486.59, 588.69 493.84 C 589.74 501.09, 590.51 503.74, 591.30 508.79 C 592.09 513.84, 592.31 515.75, 592.62 519.08 C 592.92 522.42, 591.86 524.04, 592.82 525.48 C 593.78 526.92, 595.96 527.64, 597.42 526.30 C 598.88 524.96, 600.08 522.54, 600.11 518.79 C 600.13 515.03, 598.83 512.69, 597.54 507.52 C 596.25 502.36, 595.11 500.09, 593.65 492.97 C 592.19 485.85, 591.71 481.21, 590.25 471.91 C 588.78 462.62, 587.91 457.19, 586.34 446.52 C 584.76 435.85, 583.59 430.01, 582.38 418.56 C 581.18 407.11, 580.88 400.27, 580.32 389.28 C 579.76 378.30, 579.74 372.47, 579.57 363.62 C 579.41 354.78, 579.56 350.91, 579.51 345.05 C 579.45 339.18, 580.02 337.52, 579.29 334.31 C 578.56 331.09, 577.68 329.80, 575.88 328.97 C 574.07 328.14, 571.60 328.77, 570.27 330.17" style="stroke: white; fill: white;"/><path d="M 503.82,357.21 C 505.51 356.93, 504.68 355.63, 506.40 354.12 C 508.12 352.60, 508.28 351.22, 512.42 349.64 C 516.56 348.07, 519.29 346.15, 527.10 346.23 C 534.91 346.30, 540.79 347.82, 551.49 350.01 C 562.20 352.21, 568.70 353.43, 580.63 357.18 C 592.57 360.93, 599.06 363.66, 611.17 368.74 C 623.28 373.83, 629.87 376.65, 641.18 382.61 C 652.50 388.57, 658.38 391.67, 667.72 398.55 C 677.06 405.44, 681.48 409.29, 687.90 417.03 C 694.32 424.76, 696.92 429.21, 699.84 437.22 C 702.76 445.24, 702.83 449.26, 702.50 457.09 C 702.18 464.91, 701.07 469.01, 698.21 476.36 C 695.35 483.71, 692.97 487.38, 688.21 493.83 C 683.45 500.29, 680.25 503.31, 674.39 508.63 C 668.53 513.95, 665.38 516.29, 658.92 520.43 C 652.47 524.58, 648.49 526.63, 642.14 529.34 C 635.79 532.05, 632.45 533.39, 627.17 533.98 C 621.90 534.57, 619.49 533.88, 615.76 532.30 C 612.04 530.71, 610.38 528.83, 608.55 526.06 C 606.72 523.29, 607.09 521.01, 606.62 518.45 C 606.15 515.88, 606.38 515.12, 606.21 513.25 C 606.03 511.38, 606.69 510.41, 605.73 509.10 C 604.77 507.79, 603.36 506.24, 601.42 506.68 C 599.48 507.13, 597.07 508.47, 596.01 511.34 C 594.94 514.21, 594.93 516.99, 596.09 521.04 C 597.25 525.10, 598.39 528.00, 601.82 531.61 C 605.26 535.22, 608.02 537.35, 613.25 539.09 C 618.48 540.82, 621.75 541.18, 627.99 540.27 C 634.23 539.36, 637.68 537.64, 644.44 534.55 C 651.20 531.46, 655.13 529.26, 661.80 524.82 C 668.47 520.38, 671.71 517.96, 677.80 512.35 C 683.88 506.74, 687.25 503.63, 692.22 496.77 C 697.20 489.91, 699.72 485.97, 702.67 478.06 C 705.62 470.15, 706.78 465.69, 706.98 457.23 C 707.18 448.78, 706.93 444.31, 703.69 435.79 C 700.44 427.27, 697.54 422.63, 690.75 414.63 C 683.96 406.63, 679.35 402.78, 669.75 395.79 C 660.14 388.80, 654.17 385.72, 642.72 379.70 C 631.27 373.67, 624.67 370.87, 612.48 365.66 C 600.29 360.45, 593.78 357.65, 581.78 353.64 C 569.78 349.64, 563.35 348.29, 552.47 345.65 C 541.60 343.00, 535.85 341.14, 527.39 340.39 C 518.94 339.65, 515.92 340.67, 510.20 341.92 C 504.49 343.17, 501.27 343.93, 498.82 346.65 C 496.37 349.37, 496.95 353.41, 497.95 355.52 C 498.95 357.63, 502.13 357.49, 503.82 357.21" style="stroke: white; fill: white;"/><path d="M 801.96,455.05 C 802.93 452.82, 802.96 450.41, 801.48 447.63 C 800.00 444.85, 798.11 443.19, 794.56 441.15 C 791.00 439.11, 788.28 437.57, 783.69 437.43 C 779.10 437.30, 776.51 438.53, 771.60 440.47 C 766.68 442.42, 764.22 443.93, 759.12 447.15 C 754.01 450.37, 750.72 452.19, 746.07 456.56 C 741.42 460.94, 738.92 463.58, 735.89 469.03 C 732.86 474.49, 731.74 478.06, 730.93 483.85 C 730.13 489.63, 730.27 492.94, 731.85 497.97 C 733.43 503.00, 735.26 505.54, 738.83 509.01 C 742.41 512.48, 745.13 514.26, 749.72 515.32 C 754.31 516.39, 757.31 515.95, 761.77 514.33 C 766.23 512.71, 768.40 510.76, 772.02 507.24 C 775.63 503.71, 776.96 501.42, 779.83 496.70 C 782.70 491.98, 783.70 489.17, 786.37 483.66 C 789.03 478.15, 790.54 474.51, 793.16 469.15 C 795.77 463.79, 797.45 460.40, 799.45 456.85 C 801.44 453.30, 802.56 452.35, 803.15 451.41 C 803.74 450.47, 802.15 450.48, 802.39 452.16 C 802.62 453.84, 803.02 455.80, 804.33 459.81 C 805.64 463.82, 807.07 467.28, 808.93 472.22 C 810.79 477.16, 811.68 479.99, 813.62 484.49 C 815.55 488.99, 816.58 491.35, 818.61 494.71 C 820.64 498.07, 821.55 499.64, 823.76 501.29 C 825.98 502.95, 827.89 503.36, 829.70 502.99 C 831.51 502.62, 832.49 501.14, 832.80 499.46 C 833.12 497.78, 832.36 496.65, 831.29 494.61 C 830.22 492.56, 829.23 492.02, 827.45 489.23 C 825.66 486.44, 824.19 484.74, 822.37 480.66 C 820.56 476.58, 820.03 473.71, 818.38 468.84 C 816.73 463.97, 815.85 460.78, 814.13 456.31 C 812.40 451.83, 812.68 448.88, 809.76 446.47 C 806.84 444.07, 803.11 443.11, 799.54 444.28 C 795.96 445.46, 794.59 448.03, 791.90 452.34 C 789.20 456.65, 788.53 460.25, 786.05 465.84 C 783.57 471.44, 782.15 475.01, 779.52 480.30 C 776.89 485.58, 775.64 488.20, 772.90 492.27 C 770.15 496.33, 768.68 498.02, 765.79 500.63 C 762.89 503.24, 761.22 504.24, 758.43 505.31 C 755.63 506.39, 754.51 506.57, 751.81 506.00 C 749.11 505.43, 747.37 504.58, 744.93 502.46 C 742.48 500.33, 740.89 498.89, 739.59 495.37 C 738.28 491.84, 737.88 489.37, 738.41 484.82 C 738.95 480.26, 739.72 477.12, 742.26 472.58 C 744.80 468.05, 746.93 465.81, 751.14 462.14 C 755.34 458.47, 758.60 456.83, 763.31 454.26 C 768.02 451.68, 770.83 450.39, 774.67 449.28 C 778.51 448.16, 780.12 448.09, 782.52 448.68 C 784.93 449.27, 785.08 450.61, 786.70 452.24 C 788.32 453.87, 788.64 455.52, 790.63 456.83 C 792.61 458.13, 794.34 459.11, 796.61 458.75 C 798.87 458.40, 800.99 457.27, 801.96 455.05" style="stroke: white; fill: white;"/><path d="M 925.37,461.00 C 926.30 458.99, 926.45 456.75, 924.90 454.31 C 923.35 451.86, 921.41 450.29, 917.64 448.77 C 913.88 447.25, 911.26 446.68, 906.09 446.72 C 900.91 446.76, 897.73 447.02, 891.76 448.99 C 885.80 450.97, 882.20 452.99, 876.26 456.60 C 870.31 460.21, 866.73 462.46, 862.03 467.06 C 857.34 471.66, 855.25 474.52, 852.78 479.61 C 850.31 484.69, 849.44 487.69, 849.68 492.48 C 849.92 497.27, 850.90 499.85, 853.99 503.55 C 857.08 507.26, 859.77 508.91, 865.13 511.01 C 870.49 513.10, 874.16 513.70, 880.78 514.03 C 887.39 514.35, 890.98 513.97, 898.22 512.61 C 905.46 511.25, 909.66 510.06, 916.97 507.23 C 924.28 504.40, 928.81 502.70, 934.75 498.45 C 940.69 494.21, 943.14 491.11, 946.66 486.01 C 950.19 480.91, 951.76 477.92, 952.38 472.94 C 953.00 467.96, 952.36 464.87, 949.76 461.13 C 947.16 457.38, 944.11 455.98, 939.38 454.23 C 934.64 452.48, 931.18 452.44, 926.07 452.39 C 920.96 452.35, 917.81 452.78, 913.84 454.01 C 909.86 455.25, 907.40 456.58, 906.21 458.57 C 905.02 460.56, 905.96 462.94, 907.88 463.97 C 909.79 465.01, 912.12 464.02, 915.77 463.74 C 919.43 463.46, 921.98 462.68, 926.15 462.57 C 930.32 462.45, 933.26 462.40, 936.61 463.16 C 939.97 463.91, 941.31 464.59, 942.93 466.36 C 944.56 468.13, 945.13 468.82, 944.75 472.00 C 944.37 475.19, 943.75 477.97, 941.03 482.27 C 938.31 486.57, 936.38 489.61, 931.14 493.49 C 925.90 497.37, 921.63 499.07, 914.83 501.65 C 908.03 504.22, 903.85 505.34, 897.15 506.38 C 890.44 507.42, 887.09 507.42, 881.29 506.85 C 875.49 506.28, 872.33 505.28, 868.14 503.53 C 863.95 501.78, 862.41 500.38, 860.34 498.09 C 858.26 495.80, 857.92 495.12, 857.77 492.07 C 857.62 489.02, 857.72 486.83, 859.57 482.85 C 861.43 478.86, 862.95 476.15, 867.03 472.16 C 871.11 468.18, 874.57 465.98, 879.97 462.91 C 885.37 459.85, 888.98 458.06, 894.03 456.85 C 899.08 455.65, 901.67 456.09, 905.22 456.88 C 908.78 457.67, 909.70 459.45, 911.82 460.79 C 913.95 462.12, 914.18 462.85, 915.86 463.56 C 917.54 464.26, 918.33 464.84, 920.23 464.33 C 922.13 463.82, 924.44 463.00, 925.37 461.00" style="stroke: white; fill: white;"/><path d="M 996.83,414.16 C 995.20 415.15, 993.80 416.01, 993.65 418.72 C 993.50 421.43, 994.71 423.13, 996.07 427.70 C 997.44 432.28, 998.43 435.79, 1000.45 441.61 C 1002.48 447.44, 1003.75 451.20, 1006.19 456.83 C 1008.63 462.47, 1009.77 465.33, 1012.66 469.77 C 1015.56 474.21, 1017.52 476.30, 1020.68 479.02 C 1023.84 481.74, 1025.96 483.10, 1028.48 483.37 C 1030.99 483.64, 1032.46 481.55, 1033.26 480.37 C 1034.06 479.18, 1032.82 478.33, 1032.47 477.46 C 1032.12 476.59, 1032.54 477.20, 1031.50 476.01 C 1030.47 474.82, 1029.72 473.69, 1027.30 471.50 C 1024.87 469.31, 1022.10 468.58, 1019.36 465.04 C 1016.62 461.49, 1015.63 458.97, 1013.59 453.77 C 1011.55 448.57, 1010.52 444.76, 1009.16 439.06 C 1007.80 433.35, 1007.51 429.70, 1006.78 425.23 C 1006.05 420.76, 1006.52 418.99, 1005.52 416.71 C 1004.53 414.42, 1003.54 414.31, 1001.80 413.80 C 1000.06 413.30, 998.46 413.18, 996.83 414.16" style="stroke: white; fill: white;"/><path d="M 979.26,401.22 C 981.32 401.25, 982.04 398.90, 985.63 396.86 C 989.22 394.81, 990.81 392.65, 997.22 390.99 C 1003.62 389.33, 1008.07 388.57, 1017.66 388.55 C 1027.25 388.54, 1034.33 389.17, 1045.16 390.93 C 1056.00 392.70, 1061.88 393.66, 1071.83 397.39 C 1081.78 401.11, 1086.76 403.95, 1094.92 409.54 C 1103.07 415.13, 1107.24 418.62, 1112.61 425.34 C 1117.97 432.06, 1119.56 435.95, 1121.73 443.15 C 1123.91 450.35, 1124.17 454.09, 1123.48 461.35 C 1122.79 468.61, 1121.98 472.79, 1118.26 479.47 C 1114.54 486.14, 1111.13 489.26, 1104.87 494.74 C 1098.61 500.22, 1094.14 502.92, 1086.95 506.86 C 1079.77 510.80, 1075.83 512.39, 1068.93 514.45 C 1062.04 516.50, 1058.23 516.87, 1052.49 517.13 C 1046.74 517.39, 1043.73 516.96, 1040.21 515.76 C 1036.69 514.57, 1036.36 513.03, 1034.88 511.15 C 1033.40 509.27, 1033.71 508.02, 1032.82 506.35 C 1031.94 504.69, 1031.92 503.52, 1030.45 502.82 C 1028.98 502.12, 1026.94 501.56, 1025.48 502.84 C 1024.02 504.11, 1022.66 506.17, 1023.14 509.18 C 1023.62 512.20, 1024.87 515.13, 1027.89 517.90 C 1030.92 520.68, 1033.25 521.97, 1038.26 523.05 C 1043.28 524.13, 1046.51 524.00, 1052.97 523.32 C 1059.43 522.63, 1063.27 522.02, 1070.56 519.62 C 1077.85 517.22, 1081.90 515.53, 1089.42 511.30 C 1096.94 507.07, 1101.54 504.37, 1108.17 498.48 C 1114.80 492.59, 1118.56 489.20, 1122.59 481.86 C 1126.62 474.52, 1127.60 469.81, 1128.31 461.79 C 1129.02 453.78, 1128.61 449.62, 1126.14 441.79 C 1123.67 433.96, 1121.75 429.75, 1115.96 422.64 C 1110.16 415.53, 1105.72 412.03, 1097.18 406.23 C 1088.63 400.43, 1083.49 397.56, 1073.24 393.65 C 1062.99 389.73, 1057.01 388.70, 1045.91 386.65 C 1034.81 384.61, 1027.77 383.80, 1017.75 383.42 C 1007.74 383.04, 1003.06 383.43, 995.85 384.76 C 988.64 386.09, 985.81 387.67, 981.71 390.06 C 977.61 392.45, 975.84 394.47, 975.36 396.71 C 974.87 398.94, 977.21 401.19, 979.26 401.22" style="stroke: white; fill: white;"/><path d="M 1241.23,462.82 C 1240.44 460.64, 1238.30 459.01, 1234.40 457.48 C 1230.51 455.95, 1227.55 455.14, 1221.77 455.19 C 1215.99 455.24, 1212.05 455.96, 1205.50 457.73 C 1198.95 459.50, 1195.01 461.03, 1189.00 464.05 C 1182.99 467.06, 1179.87 469.03, 1175.46 472.81 C 1171.04 476.59, 1169.12 478.54, 1166.93 482.95 C 1164.74 487.35, 1163.94 490.18, 1164.52 494.83 C 1165.09 499.48, 1166.46 502.49, 1169.82 506.21 C 1173.19 509.93, 1176.16 511.60, 1181.34 513.43 C 1186.53 515.26, 1189.64 515.42, 1195.76 515.36 C 1201.88 515.29, 1205.19 514.57, 1211.96 513.11 C 1218.73 511.65, 1222.87 510.83, 1229.60 508.06 C 1236.33 505.29, 1239.85 503.09, 1245.62 499.24 C 1251.39 495.40, 1253.88 492.23, 1258.45 488.84 C 1263.02 485.46, 1265.89 484.89, 1268.47 482.33 C 1271.06 479.78, 1271.51 477.82, 1271.36 476.06 C 1271.21 474.30, 1269.28 473.06, 1267.73 473.53 C 1266.18 474.00, 1264.03 476.02, 1263.61 478.42 C 1263.19 480.83, 1263.83 482.24, 1265.62 485.57 C 1267.42 488.90, 1269.20 491.11, 1272.60 495.06 C 1276.01 499.01, 1277.72 501.82, 1282.66 505.30 C 1287.59 508.79, 1291.72 510.19, 1297.27 512.49 C 1302.82 514.78, 1305.67 515.54, 1310.39 516.78 C 1315.11 518.01, 1318.45 519.41, 1320.85 518.66 C 1323.26 517.90, 1324.05 514.89, 1322.43 513.01 C 1320.80 511.14, 1317.13 510.88, 1312.74 509.27 C 1308.35 507.65, 1305.44 507.15, 1300.48 504.96 C 1295.51 502.77, 1291.78 501.49, 1287.91 498.34 C 1284.04 495.18, 1282.99 492.86, 1281.14 489.18 C 1279.30 485.50, 1279.58 482.86, 1278.68 479.94 C 1277.79 477.01, 1278.29 476.27, 1276.66 474.56 C 1275.02 472.86, 1272.74 471.86, 1270.50 471.43 C 1268.27 470.99, 1267.22 471.61, 1265.48 472.39 C 1263.74 473.17, 1264.17 473.19, 1261.81 475.34 C 1259.46 477.49, 1257.68 479.41, 1253.70 483.12 C 1249.73 486.84, 1247.23 490.09, 1241.93 493.90 C 1236.63 497.71, 1233.46 499.65, 1227.20 502.17 C 1220.94 504.68, 1216.91 505.35, 1210.64 506.48 C 1204.37 507.62, 1201.12 508.04, 1195.86 507.83 C 1190.60 507.62, 1188.20 507.00, 1184.34 505.43 C 1180.48 503.87, 1178.78 502.40, 1176.56 500.03 C 1174.34 497.66, 1173.72 496.30, 1173.24 493.58 C 1172.77 490.87, 1172.77 489.50, 1174.19 486.47 C 1175.61 483.44, 1176.73 481.61, 1180.33 478.42 C 1183.94 475.23, 1186.81 473.18, 1192.22 470.53 C 1197.63 467.88, 1201.50 466.51, 1207.37 465.16 C 1213.24 463.82, 1216.78 463.51, 1221.57 463.80 C 1226.36 464.09, 1227.96 465.69, 1231.31 466.61 C 1234.67 467.53, 1236.35 469.18, 1238.33 468.43 C 1240.31 467.67, 1242.01 465.01, 1241.23 462.82" style="stroke: white; fill: white;"/><path d="M 1409.33,501.98 C 1411.29 500.69, 1412.69 498.46, 1412.84 494.95 C 1412.98 491.45, 1412.15 488.84, 1410.05 484.45 C 1407.94 480.07, 1406.53 476.84, 1402.31 473.04 C 1398.10 469.23, 1395.08 467.69, 1388.97 465.41 C 1382.85 463.13, 1379.25 462.55, 1371.74 461.64 C 1364.22 460.73, 1359.39 460.34, 1351.38 460.86 C 1343.38 461.39, 1338.67 462.12, 1331.71 464.27 C 1324.75 466.41, 1321.32 468.00, 1316.57 471.57 C 1311.83 475.14, 1309.31 477.56, 1308.00 482.11 C 1306.69 486.65, 1307.20 490.03, 1310.01 494.28 C 1312.83 498.53, 1316.10 500.42, 1322.07 503.37 C 1328.03 506.31, 1331.98 507.49, 1339.85 509.01 C 1347.72 510.53, 1352.54 511.07, 1361.41 510.97 C 1370.27 510.87, 1375.54 510.17, 1384.18 508.51 C 1392.81 506.86, 1397.73 505.73, 1404.59 502.71 C 1411.45 499.70, 1415.22 497.96, 1418.46 493.42 C 1421.70 488.88, 1422.08 485.13, 1420.80 480.02 C 1419.52 474.91, 1416.61 472.20, 1412.07 467.86 C 1407.54 463.52, 1404.02 461.41, 1398.11 458.32 C 1392.20 455.24, 1388.08 454.01, 1382.52 452.43 C 1376.97 450.85, 1374.07 450.32, 1370.36 450.40 C 1366.64 450.48, 1365.20 451.55, 1363.95 452.82 C 1362.69 454.08, 1362.97 455.55, 1364.10 456.71 C 1365.23 457.88, 1366.34 457.93, 1369.60 458.65 C 1372.85 459.37, 1375.36 459.03, 1380.38 460.32 C 1385.40 461.61, 1389.33 462.54, 1394.70 465.12 C 1400.07 467.69, 1403.29 469.83, 1407.21 473.20 C 1411.13 476.57, 1413.07 478.66, 1414.32 481.97 C 1415.56 485.27, 1415.85 486.60, 1413.44 489.71 C 1411.04 492.82, 1408.33 494.79, 1402.28 497.52 C 1396.23 500.25, 1391.35 501.73, 1383.17 503.34 C 1375.00 504.96, 1369.81 505.66, 1361.40 505.60 C 1352.99 505.54, 1348.36 504.74, 1341.13 503.03 C 1333.90 501.33, 1330.25 499.72, 1325.26 497.09 C 1320.28 494.46, 1318.24 492.43, 1316.21 489.87 C 1314.18 487.31, 1314.21 486.89, 1315.11 484.31 C 1316.00 481.73, 1317.00 479.82, 1320.69 476.99 C 1324.38 474.16, 1327.36 472.17, 1333.57 470.15 C 1339.78 468.12, 1344.30 467.31, 1351.76 466.85 C 1359.23 466.40, 1364.00 466.82, 1370.89 467.86 C 1377.79 468.90, 1381.23 469.78, 1386.25 472.05 C 1391.28 474.33, 1393.26 475.96, 1396.01 479.24 C 1398.76 482.51, 1399.06 485.09, 1400.00 488.42 C 1400.94 491.74, 1400.10 493.27, 1400.70 495.86 C 1401.30 498.45, 1401.29 500.15, 1403.01 501.37 C 1404.74 502.60, 1407.36 503.26, 1409.33 501.98" style="stroke: white; fill: white;"/></svg>