<?xml version="1.0" standalone="no"?><!DOCTYPE svg PUBLIC "-//W3C//DTD SVG 1.1//EN" "http://www.w3.org/Graphics/SVG/1.1/DTD/svg11.dtd"><svg t="1663741256814" class="icon" viewBox="0 0 1024 1024" version="1.1" xmlns="http://www.w3.org/2000/svg" p-id="1793" xmlns:xlink="http://www.w3.org/1999/xlink" width="64" height="64"><path d="M756.1728 547.072a209.92 209.92 0 1 0 0 419.84 209.92 209.92 0 0 0 0-419.84z m129.6896 234.5984a34.9696 34.9696 0 0 1-24.7296 10.24h-104.96a35.1232 35.1232 0 0 1-34.9696-34.9696v-139.9296c0-19.2512 15.7696-34.9696 34.9696-34.9696 9.6768 0 18.3808 3.8912 24.6784 10.24a34.816 34.816 0 0 1 10.2912 24.6784v104.96h69.9392a35.1232 35.1232 0 0 1 24.7808 59.7504z m0 0M261.3248 292.4032a235.2128 235.2128 0 1 0 470.6304 0 235.3152 235.3152 0 0 0-470.6304 0z m0 0" fill="#ffffff" p-id="1794"></path><path d="M498.2272 865.9968c10.0864 23.808 23.296 45.8752 39.3216 65.8432H90.0096a33.4848 33.4848 0 0 1-33.536-32.256v-3.9424a437.248 437.248 0 0 1 193.3824-353.8432 67.7376 67.7376 0 0 1 75.9808 0.4096 299.52 299.52 0 0 0 203.264 51.0976 278.8352 278.8352 0 0 0-52.8384 163.6352c0.0512 37.8368 7.4752 74.3936 21.9648 109.056z m0 0" fill="#ffffff" p-id="1795"></path></svg>